<?xml version="1.0" encoding="UTF-8" standalone="no"?>
<!-- Created with Inkscape (http://www.inkscape.org/) -->

<svg
   xmlns:dc="http://purl.org/dc/elements/1.1/"
   xmlns:cc="http://creativecommons.org/ns#"
   xmlns:rdf="http://www.w3.org/1999/02/22-rdf-syntax-ns#"
   xmlns:svg="http://www.w3.org/2000/svg"
   xmlns="http://www.w3.org/2000/svg"
   xmlns:sodipodi="http://sodipodi.sourceforge.net/DTD/sodipodi-0.dtd"
   xmlns:inkscape="http://www.inkscape.org/namespaces/inkscape"
   version="1.1"
   id="svg3713"
   width="189"
   height="267"
   viewBox="0 0 189 267"
   sodipodi:docname="logo.svg"
   inkscape:version="0.92.4 (5da689c313, 2019-01-14)">
  <metadata
     id="metadata3719">
    <rdf:RDF>
      <cc:Work
         rdf:about="">
        <dc:format>image/svg+xml</dc:format>
        <dc:type
           rdf:resource="http://purl.org/dc/dcmitype/StillImage" />
      </cc:Work>
    </rdf:RDF>
  </metadata>
  <defs
     id="defs3717" />
  <sodipodi:namedview
     pagecolor="#ffffff"
     bordercolor="#666666"
     borderopacity="1"
     objecttolerance="10"
     gridtolerance="10"
     guidetolerance="10"
     inkscape:pageopacity="0"
     inkscape:pageshadow="2"
     inkscape:window-width="1366"
     inkscape:window-height="705"
     id="namedview3715"
     showgrid="false"
     inkscape:zoom="2.0149813"
     inkscape:cx="174.70289"
     inkscape:cy="157.17079"
     inkscape:window-x="-8"
     inkscape:window-y="-8"
     inkscape:window-maximized="1"
     inkscape:current-layer="svg3713" />
  <rect
     style="fill:#000000;stroke-width:0.61615431"
     id="rect3755"
     width="188.41176"
     height="187.09853"
     x="0.99256194"
     y="29.280668"
     inkscape:export-xdpi="96"
     inkscape:export-ydpi="96" />
  <path
     id="path3725"
     style="fill:#ffffff;stroke-width:1.67260063"
     d="m 90.865046,30.736157 c -0.616318,-0.0025 -1.228912,0.818954 -2.446831,2.463165 -2.148294,2.900243 -2.887096,3.028471 -6.046841,1.055176 -3.13806,-1.959748 -3.887916,-1.852626 -5.854107,0.8363 -1.848673,2.528212 -2.825128,2.73141 -5.409815,1.117247 -2.62581,-1.639851 -3.541448,-1.385111 -5.478422,1.532126 -1.92202,2.894722 -2.921548,3.18505 -5.765898,1.662802 -2.938575,-1.572677 -3.71703,-1.236826 -5.331414,2.306357 -1.486443,3.262393 -2.740552,3.936373 -5.863902,3.152461 -3.079883,-0.773 -4.177292,-0.216472 -4.880597,2.472966 -0.541125,2.069267 -2.273374,3.46934 -4.292573,3.46934 -2.237413,0 -3.566921,1.276193 -3.920157,3.763351 -0.343483,2.418508 -1.880597,3.955621 -4.299106,4.299105 -2.487157,0.353232 -3.763351,1.682743 -3.763351,3.920157 0,1.978795 -1.389937,3.748591 -3.345199,4.259909 -2.209417,0.577768 -3.345203,2.281452 -3.345203,5.017799 0,2.729694 -1.135396,4.437662 -3.328865,5.011268 -2.514613,0.657585 -3.09237,1.81336 -2.361897,4.72379 0.71289,2.840382 0.02072,4.361981 -2.633037,5.782232 -3.017272,1.614796 -3.2543502,2.3425 -1.456994,4.508182 1.78868,2.155229 1.561448,3.05851 -1.3785879,5.439222 -2.6903579,2.178508 -3.1390123,3.547178 -1.88821,5.782228 1.1848117,2.11714 0.909733,3.73482 -0.996373,5.84104 -2.0642591,2.28097 -2.1972005,3.3531 -0.610892,4.93939 1.5862991,1.58631 1.5617592,2.77299 -0.1176006,5.46209 -1.7156759,2.74725 -1.7274774,3.93819 -0.058808,5.94883 1.6702791,2.01257 1.647891,3.21136 -0.1045362,6.01743 -1.8866944,3.02109 -1.7632601,3.81552 0.8951038,5.75938 2.6123686,1.91021 2.7637365,2.77254 0.9800386,5.6287 -2.3951149,3.83519 -1.3544351,6.57932 2.4958353,6.57932 1.997206,0 2.391534,1.14872 1.652999,4.84139 -0.779175,3.89587 -0.315704,5.01482 2.381494,5.72016 2.531295,0.66195 3.231329,2.03814 2.851915,5.61237 -0.409279,3.85556 0.212978,4.83619 3.361536,5.2824 3.09669,0.43891 3.767337,1.4375 3.364803,5.0178 -0.342264,3.04428 0.213093,4.3168 1.744466,3.99204 3.569384,-0.75696 6.653133,2.79432 5.67443,6.53686 -0.743446,2.84299 -0.213718,3.33165 3.100192,2.86499 2.856275,-0.40222 4.465237,0.50687 5.641761,3.18839 0.980951,2.23579 2.670563,3.43499 4.1815,2.96626 3.303099,-1.02464 7.45211,1.60949 6.066443,3.85155 -1.614832,2.61285 2.127489,4.22088 4.753192,2.04174 1.771077,-1.46986 2.849429,-1.08969 4.795657,1.68895 1.87494,2.67684 3.463693,3.28165 6.268987,2.3913 2.835745,-0.90003 4.473142,-0.24122 6.680602,2.68528 2.507317,3.32403 3.309023,3.5564 5.622159,1.63668 2.273247,-1.88662 3.163065,-1.81725 5.654826,0.43775 1.704188,1.54227 4.447208,2.28689 6.471537,1.75754 1.932096,-0.50525 4.017501,-0.10166 4.635579,0.89837 1.462745,2.36678 3.121919,2.30098 5.651555,-0.22868 1.61676,-1.61676 2.80399,-1.57908 5.62544,0.18295 3.1676,1.97818 3.90102,1.80313 6.41926,-1.5354 2.23306,-2.96048 3.81741,-3.52386 7.39275,-2.62652 3.75003,0.94119 4.71494,0.51405 5.48496,-2.43049 0.75308,-2.87982 1.82911,-3.39493 5.54049,-2.65263 3.60936,0.72185 4.79224,0.21266 5.46208,-2.34884 0.56347,-2.15464 2.29427,-3.26678 5.07988,-3.26678 2.75641,0 4.59306,-1.16298 5.28568,-3.34521 0.66711,-2.10192 2.53104,-3.3452 5.01455,-3.3452 2.82539,0 4.10323,-1.07314 4.4853,-3.76335 0.34348,-2.41852 1.88058,-3.95561 4.2991,-4.2991 2.48715,-0.35324 3.76334,-1.68273 3.76334,-3.92017 0,-1.97879 1.38995,-3.74859 3.34521,-4.25991 2.14713,-0.56148 3.34519,-2.28126 3.34519,-4.80218 0,-2.16017 1.43807,-4.69498 3.19496,-5.63522 2.21061,-1.18311 2.90217,-2.82488 2.24754,-5.32817 -0.6136,-2.34637 0.0815,-4.36729 1.97642,-5.75281 1.96044,-1.43351 2.55678,-3.27934 1.81632,-5.61236 -0.7622,-2.40146 -0.25232,-3.80241 1.64647,-4.53104 1.96289,-0.75326 2.45259,-2.22958 1.71507,-5.1681 -0.56802,-2.26312 -0.15421,-5.17308 0.91798,-6.46499 1.49476,-1.80108 1.43472,-2.96703 -0.24829,-4.99493 -1.74595,-2.10383 -1.7751,-3.31146 -0.1502,-5.9129 1.64722,-2.63759 1.56046,-3.95707 -0.44103,-6.81455 -1.84896,-2.63984 -2.0342,-4.37434 -0.73176,-6.80801 1.23028,-2.29882 1.20454,-3.80664 -0.0816,-5.09292 -1.00513,-1.00516 -1.82613,-3.393892 -1.82613,-5.30529 0,-1.911398 -1.52556,-4.779612 -3.39094,-6.376785 -2.66677,-2.28336 -3.0265,-3.591782 -1.67588,-6.115444 1.39609,-2.608627 1.07896,-3.412165 -1.70526,-4.29584 -2.31638,-0.735191 -3.26501,-2.259687 -2.92704,-4.710721 0.36897,-2.675872 -0.48533,-3.767335 -3.26353,-4.161899 -2.68953,-0.381919 -3.76346,-1.660389 -3.76346,-4.48205 0,-2.821659 -1.07424,-4.10013 -3.76335,-4.482048 -2.41851,-0.343481 -3.95562,-1.880596 -4.29909,-4.299105 -0.38686,-2.723846 -1.65735,-3.76335 -4.59966,-3.76335 -2.97527,0 -4.06391,-0.912606 -4.06391,-3.40727 0,-2.720024 -0.92908,-3.311259 -4.59964,-2.927053 -3.70844,0.388174 -4.70656,-0.269359 -5.14848,-3.387668 -0.46859,-3.306223 -1.23447,-3.716288 -5.28894,-2.82578 -3.8308,0.84139 -4.95464,0.378121 -5.83778,-2.404363 -0.92431,-2.91226 -1.6329,-3.155358 -4.58658,-1.574598 -2.92304,1.56436 -3.96102,1.253744 -6.34085,-1.901276 -1.89303,-2.509649 -3.23668,-3.136324 -4.01817,-1.871875 -1.752,2.834805 -7.15851,2.293998 -8.35972,-0.836302 -0.94988,-2.475353 -1.38046,-2.434954 -4.511459,0.39855 -3.387078,3.065266 -3.514294,3.058909 -5.922697,-0.19274 -1.225023,-1.653926 -1.843587,-2.480315 -2.459904,-2.482766 z m -1.339385,14.569918 -0.483487,16.546333 -0.480225,16.549597 -4.478773,0.516156 c -2.462492,0.284588 -5.374907,1.601761 -6.474797,2.92705 -3.605164,4.343956 -7.322011,2.564035 -18.169928,-8.702748 C 51.147804,64.531693 49.10568,61.452914 50.360016,59.464377 53.197779,54.965593 70.693667,47.248535 80.303492,46.256714 Z m 8.320531,0.48022 h 5.945578 c 8.92776,0 32.43931,9.698279 32.43931,13.380804 0,0.694602 -4.61602,6.810965 -10.25775,13.593146 -5.64173,6.782182 -10.42671,12.537303 -10.63342,12.789516 -0.20673,0.252213 -1.32891,-0.688632 -2.49258,-2.090751 -1.16367,-1.402127 -4.29814,-2.548104 -6.96807,-2.548104 -6.308745,0 -7.64688,-3.626095 -7.863194,-21.325656 z m 47.796528,20.071207 c 2.76376,0 13.03835,14.319074 18.13074,25.265417 l 4.19782,9.022891 -6.80147,2.02214 c -3.7414,1.11239 -11.25894,2.52636 -16.7064,3.14266 l -9.90494,1.12051 v -5.25628 c 0,-4.028401 -1.15374,-5.962212 -4.9296,-8.258451 -4.82374,-2.933493 -4.8683,-3.084969 -2.09076,-7.19349 5.65126,-8.359291 16.13793,-19.865397 18.10461,-19.865397 z M 41.77814,67.281824 53.084527,78.993297 c 11.137483,11.536428 11.287147,11.817373 10.287145,18.940886 -0.558258,3.976767 -1.305137,8.170257 -1.659532,9.320177 -0.779944,2.53069 -2.280393,2.4577 -22.491903,-1.09111 C 25.128564,103.689 23.387886,103.00152 23.83035,100.08701 24.562453,95.264613 33.505232,77.469626 37.942918,72.005616 Z m 52.856795,17.761582 c 1.985404,-0.365942 3.07968,6.241542 3.103451,18.865754 0.01279,6.6695 -0.631294,12.12635 -1.430859,12.12635 -3.110063,0 -5.066416,-28.980373 -2.080949,-30.825498 0.140238,-0.08666 0.275988,-0.142206 0.408357,-0.166606 z m 11.606945,2.332492 c 1.16775,0.225193 1.94431,4.217565 2.71469,13.406932 0.86682,10.33935 0.6351,11.90748 -1.75425,11.90748 -2.13093,0 -2.81056,-1.79192 -3.012,-7.94485 -0.29838,-9.112859 0.19656,-15.965394 1.22506,-16.993877 0.20692,-0.20694 0.40184,-0.331128 0.58801,-0.372415 0.0815,-0.01806 0.16056,-0.01811 0.23849,-0.0032 z m -23.122416,2.430498 c 1.670734,-0.225619 2.885757,5.248304 2.90745,14.102764 0.01403,5.74956 -0.665814,10.45375 -1.512525,10.45375 -1.946316,0 -4.262524,-20.793867 -2.613431,-23.462136 0.425076,-0.687803 0.832951,-1.04231 1.218506,-1.094378 z m -10.636691,5.246482 c 0.06169,0.01174 0.124578,0.03496 0.189474,0.0751 0.919931,0.568549 1.672602,4.751938 1.672602,9.297302 0,4.54545 -0.752671,8.265 -1.672602,8.265 -0.91993,0 -1.6726,-4.18339 -1.6726,-9.2973 0,-5.411949 0.557801,-8.503585 1.483126,-8.340137 z m 43.151147,0.963703 c 4.23984,-0.113073 10.56154,3.334274 10.56154,5.759359 0,1.40266 -0.70922,2.55138 -1.57785,2.55138 -2.36547,0 -11.28286,-8.249354 -8.98369,-8.310739 z m 7.21634,13.328529 c 3.42135,0 4.37796,3.72322 2.32923,9.06211 -1.9403,5.05641 -5.67442,2.94536 -5.67442,-3.208 0,-4.73904 0.63719,-5.85411 3.34519,-5.85411 z m 44.7388,0.58475 c 1.05579,-0.0179 1.75632,0.0426 1.99929,0.19274 2.80399,1.73297 1.93904,24.22621 -1.25119,32.53732 -1.55985,4.0637 -3.58825,7.61467 -4.50817,7.89257 -2.54442,0.76861 -30.13142,-15.43132 -29.94022,-17.5819 0.092,-1.03469 0.28016,-5.53075 0.41816,-9.98987 l 0.25154,-8.1082 16.63128,-2.92051 c 6.86055,-1.20508 13.23197,-1.96867 16.39931,-2.02215 z m -145.93113,3.59674 5.854102,0.43122 c 10.899537,0.80135 31.836322,4.16237 32.475241,5.21382 0.349322,0.57485 0.901248,3.78099 1.225047,7.12489 0.581972,6.01016 0.39704,6.2066 -15.938708,17.14415 -9.088805,6.08539 -16.793153,11.06465 -17.121288,11.06465 -0.328135,0 -1.823208,-2.82252 -3.322334,-6.27226 -1.726801,-3.97366 -2.804864,-11.48239 -2.94665,-20.48935 z m 51.785283,6.82435 c 0.590215,-0.007 1.303189,0.0598 2.156085,0.18947 4.023036,0.61095 10.239514,1.29084 18.81676,2.06135 2.014441,0.18096 1.932072,0.56181 -0.418152,1.93068 -1.609901,0.93768 -4.074917,3.92407 -5.478427,6.63814 -3.05825,5.91401 -3.946067,6.02367 -10.18587,1.23159 -5.906627,-4.53619 -7.274777,-6.38599 -7.307829,-9.86574 -0.01421,-1.50014 0.646776,-2.16507 2.417433,-2.18549 z m 33.164527,5.92598 c 2.358,-0.10166 5.06488,0.67085 8.76809,2.21816 4.49632,1.87867 5.80183,3.39346 5.80183,6.74266 0,6.35294 -4.10856,15.09517 -8.55901,18.21241 -5.85651,4.10204 -12.50299,2.47263 -17.186615,-4.2142 -4.190044,-5.9821 -3.340769,-12.22225 2.456625,-18.01965 3.23437,-3.23436 5.68739,-4.80867 8.71908,-4.93938 z m -32.609172,12.15576 c 1.002703,0.0225 2.919019,0.97908 5.988035,2.78983 4.294153,2.5336 6.066442,4.75164 6.066442,7.59531 0,7.44997 -8.434368,3.42615 -11.894405,-5.67444 -1.225757,-3.22398 -1.449276,-4.73958 -0.160068,-4.7107 z m -10.839237,4.36443 c 0.633116,0 1.149913,0.99923 1.149913,2.22142 0,1.22218 2.338274,5.75007 5.19421,10.06174 5.707634,8.61695 5.667452,10.55041 -0.516155,24.93221 -1.878787,4.36966 -4.28887,7.94485 -5.354281,7.94485 -7.048931,0 -29.430583,-19.80267 -29.430583,-26.03964 0,-1.54938 26.610498,-19.12058 28.956896,-19.12058 z m 68.240139,0.85264 12.56085,6.68386 c 6.90905,3.6752 13.29481,7.5433 14.18772,8.5982 2.08903,2.46806 -9.43427,15.99799 -20.06142,23.55364 -8.71687,6.19745 -11.54506,6.74915 -13.02801,2.54483 -0.56783,-1.60988 -2.78789,-7.34666 -4.93287,-12.75032 -4.26452,-10.74317 -4.28706,-10.64197 4.91002,-21.2734 z m -42.742775,20.38483 c 1.609211,-0.0408 4.041925,0.27979 7.915453,0.80035 5.714322,0.76793 11.329252,1.74641 12.479162,2.17242 3.43608,1.27297 2.36824,5.4311 -1.6726,6.514 -4.84443,1.2983 -22.141219,1.35368 -23.419677,0.075 -0.538164,-0.53816 -0.259358,-3.04209 0.620691,-5.56662 0.994259,-2.85211 1.39494,-3.92768 4.076971,-3.99527 z m 17.862865,17.88243 c 7.56228,-0.0828 8.04799,0.70337 9.43777,3.75355 2.61553,5.74046 2.41751,6.52145 -2.16916,8.61128 -8.36793,3.81268 -33.33031,3.68907 -37.202297,-0.18291 -0.587396,-0.58741 -0.393056,-3.34159 0.434481,-6.12199 l 1.505996,-5.05376 17.777918,-0.68602 c 4.389662,-0.16908 7.694492,-0.29254 10.215292,-0.32015 z"
     inkscape:connector-curvature="0"
     sodipodi:nodetypes="ccssccssssscsscssssscscccccscsssscccccccscccscscccccccccscscsscsccccccccccccsscsccsscsssccccccssscccccssscccsssccsccscccccssssccssssccccsccccscccccscsssccssscccsscscssccsccccccccccsssccccscccccccscsccccssccssssssscccccccccccccccccccccccc"
     inkscape:export-xdpi="96"
     inkscape:export-ydpi="96" />
</svg>
