<?xml version="1.0" encoding="UTF-8" standalone="no"?>
<!-- Created with Inkscape (http://www.inkscape.org/) -->

<svg
   xmlns:dc="http://purl.org/dc/elements/1.1/"
   xmlns:cc="http://creativecommons.org/ns#"
   xmlns:rdf="http://www.w3.org/1999/02/22-rdf-syntax-ns#"
   xmlns:svg="http://www.w3.org/2000/svg"
   xmlns="http://www.w3.org/2000/svg"
   xmlns:sodipodi="http://sodipodi.sourceforge.net/DTD/sodipodi-0.dtd"
   xmlns:inkscape="http://www.inkscape.org/namespaces/inkscape"
   width="210mm"
   height="297mm"
   viewBox="0 0 210 297"
   version="1.1"
   id="svg8"
   inkscape:export-filename="C:\Users\peter\Documents\Arduino\BikeWheel\Simulation\Images\rocket.png"
   inkscape:export-xdpi="139.70892"
   inkscape:export-ydpi="139.70892"
   inkscape:version="0.92.4 (5da689c313, 2019-01-14)"
   sodipodi:docname="rocket.svg">
  <defs
     id="defs2">
    <filter
       style="color-interpolation-filters:sRGB;"
       inkscape:label="Invert"
       id="filter3734">
      <feColorMatrix
         values="1 0 0 0 0 0 1 0 0 0 0 0 1 0 0 -0.21 -0.72 -0.07 2 0 "
         result="fbSourceGraphic"
         id="feColorMatrix3732" />
      <feColorMatrix
         result="fbSourceGraphicAlpha"
         in="fbSourceGraphic"
         values="0 0 0 -1 0 0 0 0 -1 0 0 0 0 -1 0 0 0 0 1 0"
         id="feColorMatrix3736" />
      <feColorMatrix
         id="feColorMatrix3738"
         values="-1 0 0 0 1 0 -1 0 0 1 0 0 -1 0 1 0.21 0.72 0.07 1 0 "
         result="fbSourceGraphic"
         in="fbSourceGraphic" />
      <feColorMatrix
         result="fbSourceGraphicAlpha"
         in="fbSourceGraphic"
         values="0 0 0 -1 0 0 0 0 -1 0 0 0 0 -1 0 0 0 0 1 0"
         id="feColorMatrix3740" />
      <feColorMatrix
         id="feColorMatrix3742"
         values="-1 0 0 0 1 0 -1 0 0 1 0 0 -1 0 1 0.21 0.72 0.07 1 0 "
         result="fbSourceGraphic"
         in="fbSourceGraphic" />
      <feColorMatrix
         result="fbSourceGraphicAlpha"
         in="fbSourceGraphic"
         values="0 0 0 -1 0 0 0 0 -1 0 0 0 0 -1 0 0 0 0 1 0"
         id="feColorMatrix3744" />
      <feColorMatrix
         id="feColorMatrix3746"
         values="-1 0 0 0 1 0 -1 0 0 1 0 0 -1 0 1 0.21 0.72 0.07 1 0 "
         result="color2"
         in="fbSourceGraphic" />
    </filter>
    <filter
       style="color-interpolation-filters:sRGB;"
       inkscape:label="Lightness-Contrast"
       id="filter4761">
      <feColorMatrix
         values="-1 0 0 0 1 0 -1 0 0 1 0 0 -1 0 1 0.21 0.72 0.07 1 0 "
         result="fbSourceGraphic"
         id="feColorMatrix4759" />
      <feColorMatrix
         result="fbSourceGraphicAlpha"
         in="fbSourceGraphic"
         values="0 0 0 -1 0 0 0 0 -1 0 0 0 0 -1 0 0 0 0 1 0"
         id="feColorMatrix4763" />
      <feColorMatrix
         id="feColorMatrix4765"
         values="-1 0 0 0 1 0 -1 0 0 1 0 0 -1 0 1 0.21 0.72 0.07 1 0 "
         result="fbSourceGraphic"
         in="fbSourceGraphic" />
      <feColorMatrix
         result="fbSourceGraphicAlpha"
         in="fbSourceGraphic"
         values="0 0 0 -1 0 0 0 0 -1 0 0 0 0 -1 0 0 0 0 1 0"
         id="feColorMatrix4767" />
      <feColorMatrix
         id="feColorMatrix4769"
         values="-1 0 0 0 1 0 -1 0 0 1 0 0 -1 0 1 0.21 0.72 0.07 1 0 "
         result="fbSourceGraphic"
         in="fbSourceGraphic" />
      <feColorMatrix
         result="fbSourceGraphicAlpha"
         in="fbSourceGraphic"
         values="0 0 0 -1 0 0 0 0 -1 0 0 0 0 -1 0 0 0 0 1 0"
         id="feColorMatrix4875" />
      <feColorMatrix
         id="feColorMatrix4877"
         type="luminanceToAlpha"
         result="colormatrix1"
         in="fbSourceGraphic" />
      <feFlood
         id="feFlood4879"
         flood-opacity="1"
         flood-color="rgb(0,0,0)"
         result="flood1" />
      <feComposite
         in2="colormatrix1"
         id="feComposite4881"
         operator="out"
         result="composite1" />
      <feFlood
         id="feFlood4883"
         flood-opacity="1"
         flood-color="rgb(255,255,255)"
         result="flood2" />
      <feComposite
         in2="colormatrix1"
         id="feComposite4885"
         result="composite2"
         operator="in" />
      <feComposite
         in2="composite1"
         id="feComposite4887"
         in="composite2"
         k2="1"
         k3="1"
         operator="arithmetic"
         result="composite3" />
      <feColorMatrix
         id="feColorMatrix4889"
         in="composite3"
         type="matrix"
         values="2 -1 0 0 0 0 2 -1 0 0 -1 0 2 0 0 0 0 0 1 0 "
         result="colormatrix2" />
      <feComposite
         in2="composite3"
         id="feComposite4891"
         in="colormatrix2"
         operator="arithmetic"
         k2="0"
         result="composite4" />
      <feBlend
         in2="composite3"
         id="feBlend4893"
         in="composite4"
         mode="normal"
         result="blend" />
      <feComposite
         in2="fbSourceGraphic"
         id="feComposite4895"
         operator="in"
         result="fbSourceGraphic" />
      <feColorMatrix
         result="fbSourceGraphicAlpha"
         in="fbSourceGraphic"
         values="0 0 0 -1 0 0 0 0 -1 0 0 0 0 -1 0 0 0 0 1 0"
         id="feColorMatrix4957" />
      <feColorMatrix
         id="feColorMatrix4959"
         values="11 0 0 -1.344 -5 0 11 0 -1.344 -5 0 0 11 -1.344 -5 0 0 0 1 0"
         in="fbSourceGraphic" />
    </filter>
    <filter
       style="color-interpolation-filters:sRGB;"
       inkscape:label="Invert"
       id="filter4974">
      <feColorMatrix
         values="-1 0 0 0 1 0 -1 0 0 1 0 0 -1 0 1 0.21 0.72 0.07 1 0 "
         result="color2"
         id="feColorMatrix4972" />
    </filter>
    <filter
       style="color-interpolation-filters:sRGB;"
       inkscape:label="Invert"
       id="filter877">
      <feColorMatrix
         values="-1 0 0 0 1 0 -1 0 0 1 0 0 -1 0 1 0.21 0.72 0.07 1 0 "
         result="fbSourceGraphic"
         id="feColorMatrix875" />
      <feColorMatrix
         result="fbSourceGraphicAlpha"
         in="fbSourceGraphic"
         values="0 0 0 -1 0 0 0 0 -1 0 0 0 0 -1 0 0 0 0 1 0"
         id="feColorMatrix879" />
      <feColorMatrix
         id="feColorMatrix881"
         values="-1 0 0 0 1 0 -1 0 0 1 0 0 -1 0 1 0.21 0.72 0.07 1 0 "
         result="color2"
         in="fbSourceGraphic" />
    </filter>
  </defs>
  <sodipodi:namedview
     id="base"
     pagecolor="#ffffff"
     bordercolor="#666666"
     borderopacity="1.0"
     inkscape:pageopacity="0.0"
     inkscape:pageshadow="2"
     inkscape:zoom="0.7"
     inkscape:cx="337.24667"
     inkscape:cy="547.63604"
     inkscape:document-units="mm"
     inkscape:current-layer="layer8"
     showgrid="false"
     inkscape:window-width="1366"
     inkscape:window-height="705"
     inkscape:window-x="-8"
     inkscape:window-y="-8"
     inkscape:window-maximized="1"
     showguides="false" />
  <metadata
     id="metadata5">
    <rdf:RDF>
      <cc:Work
         rdf:about="">
        <dc:format>image/svg+xml</dc:format>
        <dc:type
           rdf:resource="http://purl.org/dc/dcmitype/StillImage" />
        <dc:title />
      </cc:Work>
    </rdf:RDF>
  </metadata>
  <g
     inkscape:groupmode="layer"
     id="layer3"
     inkscape:label="background"
     style="display:inline">
    <rect
       style="display:inline;opacity:1;vector-effect:none;fill:#000000;fill-opacity:1;stroke:none;stroke-width:0.25127375px;stroke-linecap:butt;stroke-linejoin:miter;stroke-miterlimit:4;stroke-dasharray:none;stroke-dashoffset:0;stroke-opacity:1"
       id="rect4704"
       width="178.02679"
       height="178.78275"
       x="13.607144"
       y="67.190475"
       inkscape:export-xdpi="139.65666"
       inkscape:export-ydpi="139.65666" />
  </g>
  <g
     inkscape:groupmode="layer"
     id="layer6"
     inkscape:label="splat"
     style="display:none;opacity:0.77999998"
     sodipodi:insensitive="true">
    <path
       style="display:inline;fill:#ffb400;fill-opacity:1;stroke:none;stroke-width:0.56532139"
       d="m 105.56175,134.30018 c -6.609225,-2.96709 -6.25268,-13.93099 0.83835,-16.07715 6.56102,-2.7057 14.15425,4.24011 11.57668,10.95842 -1.62928,4.78001 -7.8632,7.98217 -12.41503,5.11873 z"
       id="path4614"
       inkscape:export-xdpi="139.65666"
       inkscape:export-ydpi="139.65666"
       inkscape:connector-curvature="0" />
    <g
       id="g4623">
      <path
         id="path902"
         style="display:inline;fill:#00ffff;fill-opacity:1;stroke:none;stroke-width:0.56532139"
         d="M 111.19342,102.39233 C 103.40337,98.843602 99.208607,88.129946 104.345,80.765937 c 5.34562,-9.73055 21.51606,-8.992695 26.30209,0.922612 4.85297,8.29647 -0.6208,20.598691 -10.42752,21.702951 -3.01478,0.53585 -6.23072,0.31473 -9.02615,-0.99917 z m -49.838547,57.56344 c -7.043251,-2.71561 -8.619194,-13.50208 -2.293388,-17.86524 5.65176,-4.22838 13.209686,-3.46175 19.502241,-6.20548 8.704387,-2.92896 16.82134,-11.09341 15.674431,-20.88979 -0.140658,-7.60305 -3.702316,-14.89057 -9.551687,-19.729681 -3.950306,-4.33273 -10.747301,-7.305982 -11.683142,-13.626504 -0.448587,-6.293978 7.005091,-12.012527 12.771033,-8.572508 5.914717,2.715116 7.323335,9.520063 7.957162,15.347905 1.292721,7.711724 3.402326,16.321918 10.257907,21.006978 1.51365,1.66466 10.23366,4.45532 3.86309,4.24317 -6.37925,0.70029 -10.059544,6.2739 -10.960004,13.55003 -0.757968,6.16747 7.061834,10.14135 6.411554,11.67152 -6.495992,-0.21183 -13.161029,1.985 -17.170227,7.32842 -5.366336,5.66992 -10.066799,13.46729 -18.357151,14.91127 -2.186318,0.2985 -4.530219,0.0418 -6.421819,-1.17009 z m 73.603577,15.94458 c -7.72364,-3.27273 -9.69504,-12.00825 -11.95107,-19.22358 -1.76462,-6.81427 -5.79867,-13.61847 -12.74859,-16.06687 -2.49509,-2.20818 6.05199,-0.95277 7.23018,-3.773 6.15319,-4.64036 7.18167,-15.05859 0.88975,-19.99555 -2.31595,-1.13642 -5.70263,-3.89738 -0.83975,-3.06932 7.84255,-0.42117 14.92614,-5.07125 19.23671,-11.50615 4.32585,-5.559345 7.7253,-13.51239 15.43874,-14.827739 6.03567,-0.629943 12.45124,6.098521 9.42144,12.007773 -2.88626,6.397276 -10.8938,6.121886 -16.48477,8.638776 -6.46341,1.98423 -12.72001,5.64524 -16.01413,11.77274 -4.84375,7.43933 -4.59048,17.95861 1.58986,24.58594 4.84027,6.03716 12.10222,9.4684 17.26469,15.13044 3.91669,6.01353 0.37283,15.01619 -6.70629,16.51074 -2.03421,0.65909 -4.3791,0.86583 -6.32677,-0.1842 z"
         inkscape:export-xdpi="139.65666"
         inkscape:export-ydpi="139.65666"
         inkscape:connector-curvature="0" />
    </g>
  </g>
  <g
     inkscape:label="image"
     inkscape:groupmode="layer"
     id="layer1"
     style="display:none"
     sodipodi:insensitive="true">
    <path
       style="fill:#000000;stroke-width:0.84453583"
       d=""
       id="path862"
       inkscape:connector-curvature="0" />
  </g>
  <g
     inkscape:groupmode="layer"
     id="layer5"
     inkscape:label="finger"
     style="display:none"
     sodipodi:insensitive="true">
    <path
       style="display:inline;fill:#ffffff;stroke:#656666;stroke-width:0.13375318;stroke-opacity:0"
       d="m 92.861852,228.81357 c -3.461064,-0.37521 -7.751509,-1.3973 -10.675587,-2.54319 -5.92587,-2.32221 -11.001935,-6.59018 -14.23815,-11.97147 -1.068419,-1.77661 -8.315456,-15.53466 -13.375751,-25.39304 -2.523941,-4.91711 -3.554343,-7.55692 -4.269609,-10.93843 -0.321185,-1.51845 -0.360701,-1.99588 -0.367763,-4.44319 -0.009,-3.13038 0.221853,-4.65641 1.075609,-7.10919 1.426623,-4.09858 3.611898,-6.71903 7.008547,-8.40422 1.953104,-0.969 2.258544,-1.44454 2.53563,-3.94768 0.967705,-8.74205 5.569861,-16.54807 11.43967,-19.40356 3.765865,-1.83199 8.293123,-1.8507 13.891426,-0.0574 0.723648,0.23181 1.336791,0.4004 1.362541,0.37465 0.02575,-0.0258 -0.75719,-2.84416 -1.739866,-6.26313 -4.295568,-14.94531 -6.152037,-22.32742 -6.881198,-27.36257 -1.137902,-7.857672 -0.336104,-16.125878 2.02126,-20.843421 1.054389,-2.110038 2.738963,-4.134039 4.474037,-5.37552 1.152512,-0.824647 3.353096,-1.844499 4.930387,-2.284968 1.237137,-0.34548 1.518242,-0.373516 3.745089,-0.373516 2.151515,0 2.513629,0.03331 3.404946,0.313202 6.03276,1.894418 10.05563,8.127812 11.43888,17.724468 0.34287,2.37872 1.92821,16.731415 3.20803,29.043445 0.40528,3.89891 0.77342,7.31672 0.81809,7.59514 0.0447,0.27842 0.2366,0.69089 0.42653,0.9166 0.3348,0.39789 0.37208,0.40833 1.22467,0.34279 0.48365,-0.0372 1.36087,-0.16165 1.94939,-0.27661 2.92576,-0.5715 6.01278,-0.0528 9.36272,1.5732 3.36446,1.63304 7.00634,4.30281 10.03194,7.35416 2.74455,2.7679 4.63232,5.3436 6.28855,8.58019 3.12574,6.10826 4.27642,12.33511 4.27532,23.1357 0,4.84317 -0.0869,6.42605 -0.54257,9.93601 -0.87155,6.71378 -2.95204,13.59381 -5.87033,19.41271 -4.16663,8.30802 -10.02922,13.82321 -17.99487,16.92854 -0.69886,0.27245 -1.43984,0.59486 -1.64663,0.71648 -0.20678,0.12162 -0.74641,0.7619 -1.19917,1.42285 -6.22823,9.09194 -14.69248,12.85893 -26.111768,11.62097 z m 7.955758,-2.39241 c 3.63293,-0.80615 6.8615,-2.46201 9.29886,-4.76917 0.96809,-0.91637 2.47398,-2.84956 2.47398,-3.17596 0,-0.0554 -0.73732,0.0693 -1.63848,0.27696 -2.01352,0.46403 -5.66993,1.0871 -8.25926,1.40741 -2.769779,0.34263 -10.171934,0.34532 -12.572798,0.005 -6.253871,-0.88762 -11.617006,-2.80924 -16.618833,-5.95458 -0.937944,-0.58981 -1.705353,-1.0431 -1.705353,-1.00729 0,0.1148 0.700061,1.2863 1.386159,2.31965 3.985669,6.00291 10.034755,9.53976 18.409312,10.76379 3.462825,0.50612 7.299934,0.56211 9.226413,0.13462 z m 3.48014,-9.21639 c 7.97477,-0.89261 14.48621,-3.05905 19.72859,-6.56392 6.49517,-4.34243 11.00971,-10.26831 14.41862,-18.92617 4.71139,-11.96583 5.57366,-23.74063 2.68867,-36.71524 -2.16479,-9.73568 -7.0535,-16.45673 -14.80004,-20.34728 -1.51767,-0.76222 -3.78017,-1.64189 -5.38357,-2.09316 -3.36563,-0.94724 -4.69532,-0.85183 -5.34337,0.38342 -0.57584,1.09758 -0.37724,4.34627 0.48167,7.87918 0.55594,2.28668 1.13988,4.11544 2.81171,8.80556 0.80856,2.26831 1.44587,4.14844 1.41625,4.17806 -0.0296,0.0296 -0.32309,-0.26136 -0.65213,-0.64662 -3.44761,-4.03659 -5.36058,-8.29464 -7.34356,-16.34595 -1.96503,-7.97842 -3.39373,-16.4489 -5.27964,-31.30189 -1.24642,-9.816515 -1.9321,-14.76514 -2.2815,-16.465797 -1.2858,-6.258468 -4.29646,-10.309503 -8.687522,-11.689618 -1.298611,-0.408155 -3.621445,-0.506905 -5.142234,-0.218611 -1.76491,0.334572 -2.935943,0.963129 -4.219809,2.264998 -0.900965,0.913599 -1.197646,1.332175 -1.773096,2.501592 -1.81889,3.696307 -2.64028,9.125423 -2.165253,14.31159 0.831304,9.075876 6.406369,36.935866 8.10514,40.503416 0.360814,0.75774 0.78398,1.31234 1.870024,2.45085 0.772025,0.80933 1.767163,2.02381 2.211419,2.69886 3.262144,4.95683 5.272081,12.87243 4.788578,18.85854 -0.168767,2.08948 -0.294371,2.42359 -0.531455,1.4137 -0.644494,-2.74531 -2.713149,-8.24225 -4.231975,-11.24543 -2.767579,-5.47235 -6.617824,-9.63621 -10.808448,-11.68884 -7.765493,-3.80364 -15.902154,-0.17674 -18.92774,8.437 -0.51745,1.47316 -1.127895,3.87016 -1.396585,5.48388 -0.472871,2.84002 -0.548095,4.05159 -0.548095,8.82771 0,4.63499 0.01137,4.85129 0.304006,5.78223 l 0.304007,0.96712 0.899771,-0.73146 c 1.105754,-0.89891 2.736989,-1.72636 3.957209,-2.0073 0.504561,-0.11617 0.964911,-0.19334 1.022999,-0.17148 0.05809,0.0219 -0.433172,0.64162 -1.091688,1.37726 -3.266455,3.64903 -4.246795,5.41571 -5.547957,9.99805 -0.349884,1.23221 -0.677248,2.24037 -0.727474,2.24037 -0.21085,0 -0.457972,-2.3415 -0.451724,-4.2801 0.0049,-1.52272 0.06705,-2.29138 0.234068,-2.895 0.428211,-1.54765 0.293591,-2.48911 -0.714442,-4.99644 -0.280966,-0.69886 -0.599726,-1.78226 -0.708355,-2.40756 -0.10863,-0.62529 -0.300008,-1.39293 -0.425287,-1.70585 -0.274821,-0.68645 -0.891018,-1.23779 -1.378937,-1.23378 -0.81368,0.007 -2.758286,1.22716 -3.772238,2.36754 -0.651299,0.73251 -1.363264,2.14629 -1.668915,3.31403 -0.298347,1.13985 -0.404804,4.12016 -0.207566,5.8109 0.08964,0.76837 0.483252,2.66432 0.874701,4.21322 2.774031,10.97643 7.71764,20.59589 14.988694,29.16556 5.457804,6.43258 12.042206,9.91558 20.095845,10.63025 2.195463,0.19483 12.773884,0.0628 15.008634,-0.18739 z m 9.03771,-16.28256 c -0.19465,-7.17628 -0.3177,-17.06459 -0.21896,-17.59509 0.22242,-1.19487 0.94805,-1.77668 2.21589,-1.77668 1.01624,0 1.59081,0.32662 1.94426,1.10523 0.42909,0.94525 0.31335,2.79277 -0.46695,7.45397 -0.48897,2.92091 -2.37625,13.83903 -2.39666,13.86496 -0.009,0.0118 -0.23571,0.0624 -0.5031,0.11232 l -0.48618,0.0908 z m -8.09674,2.04518 c -0.9096,-3.37798 -3.12818,-12.7283 -3.17982,-13.4015 -0.11121,-1.44967 0.45628,-2.13131 1.77436,-2.13131 0.50159,0 0.69083,0.072 0.99894,0.38012 0.20907,0.20907 0.44216,0.61535 0.51798,0.90284 0.14061,0.53314 0.41885,8.97343 0.41885,12.70539 0,1.71958 -0.0325,2.06203 -0.19547,2.06203 -0.11378,0 -0.25372,-0.21632 -0.33484,-0.51757 z m 16.76889,0.1477 c -0.10336,-0.0695 -0.035,-0.86229 0.23332,-2.70645 0.20873,-1.4345 0.65531,-4.50414 0.99241,-6.82141 0.70689,-4.85932 0.75159,-5.06716 1.20584,-5.60701 0.59829,-0.71101 1.86955,-0.66764 2.46077,0.084 0.49803,0.63315 0.37337,1.32436 -0.91612,5.07953 -2.222,6.47072 -3.54037,10.07373 -3.68531,10.07169 -0.0796,-0.001 -0.2105,-0.0463 -0.29091,-0.10032 z"
       id="path5020"
       inkscape:connector-curvature="0"
       inkscape:export-xdpi="139.65666"
       inkscape:export-ydpi="139.65666" />
  </g>
  <g
     inkscape:groupmode="layer"
     id="layer2"
     inkscape:label="pandora"
     style="display:inline">
    <g
       inkscape:groupmode="layer"
       id="layer10"
       inkscape:label="stars"
       style="display:inline">
      <rect
         style="opacity:1;vector-effect:none;fill:#ffffff;fill-opacity:1;stroke:none;stroke-width:0.26458332px;stroke-linecap:butt;stroke-linejoin:miter;stroke-miterlimit:4;stroke-dasharray:none;stroke-dashoffset:0;stroke-opacity:1"
         id="rect1186"
         width="1.8898809"
         height="1.8898809"
         x="40.82143"
         y="111.79166"
         inkscape:export-xdpi="139.65666"
         inkscape:export-ydpi="139.65666" />
      <rect
         style="display:inline;opacity:1;vector-effect:none;fill:#ffffff;fill-opacity:1;stroke:none;stroke-width:0.26458332px;stroke-linecap:butt;stroke-linejoin:miter;stroke-miterlimit:4;stroke-dasharray:none;stroke-dashoffset:0;stroke-opacity:1"
         id="rect1186-8"
         width="1.8898809"
         height="1.8898809"
         x="70.114586"
         y="135.79315"
         inkscape:export-xdpi="139.65666"
         inkscape:export-ydpi="139.65666" />
      <rect
         style="display:inline;opacity:1;vector-effect:none;fill:#ffffff;fill-opacity:1;stroke:none;stroke-width:0.26458332px;stroke-linecap:butt;stroke-linejoin:miter;stroke-miterlimit:4;stroke-dasharray:none;stroke-dashoffset:0;stroke-opacity:1"
         id="rect1186-8-6"
         width="1.8898809"
         height="1.8898809"
         x="90.903275"
         y="175.85863"
         inkscape:export-xdpi="139.65666"
         inkscape:export-ydpi="139.65666" />
      <rect
         style="display:inline;opacity:1;vector-effect:none;fill:#ffffff;fill-opacity:1;stroke:none;stroke-width:0.26458332px;stroke-linecap:butt;stroke-linejoin:miter;stroke-miterlimit:4;stroke-dasharray:none;stroke-dashoffset:0;stroke-opacity:1"
         id="rect1186-9"
         width="1.8898809"
         height="1.8898809"
         x="160.36313"
         y="-101.48421"
         transform="rotate(67.25686)"
         inkscape:export-xdpi="139.65666"
         inkscape:export-ydpi="139.65666" />
      <rect
         style="display:inline;opacity:1;vector-effect:none;fill:#ffffff;fill-opacity:1;stroke:none;stroke-width:0.26458332px;stroke-linecap:butt;stroke-linejoin:miter;stroke-miterlimit:4;stroke-dasharray:none;stroke-dashoffset:0;stroke-opacity:1"
         id="rect1186-8-5"
         width="1.8898809"
         height="1.8898809"
         x="189.65628"
         y="-77.482704"
         transform="rotate(67.25686)"
         inkscape:export-xdpi="139.65666"
         inkscape:export-ydpi="139.65666" />
      <rect
         style="display:inline;opacity:1;vector-effect:none;fill:#ffffff;fill-opacity:1;stroke:none;stroke-width:0.26458332px;stroke-linecap:butt;stroke-linejoin:miter;stroke-miterlimit:4;stroke-dasharray:none;stroke-dashoffset:0;stroke-opacity:1"
         id="rect1186-8-4"
         width="1.8898809"
         height="1.8898809"
         x="-176.00624"
         y="132.65277"
         transform="rotate(-84.157871)"
         inkscape:export-xdpi="139.65666"
         inkscape:export-ydpi="139.65666" />
      <rect
         style="display:inline;opacity:1;vector-effect:none;fill:#ffffff;fill-opacity:1;stroke:none;stroke-width:0.26458332px;stroke-linecap:butt;stroke-linejoin:miter;stroke-miterlimit:4;stroke-dasharray:none;stroke-dashoffset:0;stroke-opacity:1"
         id="rect1186-8-6-4"
         width="1.8898809"
         height="1.8898809"
         x="53.323769"
         y="-216.00352"
         transform="rotate(142.58953)"
         inkscape:export-xdpi="139.65666"
         inkscape:export-ydpi="139.65666" />
      <rect
         style="display:inline;opacity:1;vector-effect:none;fill:#ffffff;fill-opacity:1;stroke:none;stroke-width:0.26458332px;stroke-linecap:butt;stroke-linejoin:miter;stroke-miterlimit:4;stroke-dasharray:none;stroke-dashoffset:0;stroke-opacity:1"
         id="rect1186-8-6-0-7"
         width="1.8898809"
         height="1.8898809"
         x="85.829712"
         y="-179.33983"
         transform="rotate(142.58953)"
         inkscape:export-xdpi="139.65666"
         inkscape:export-ydpi="139.65666" />
      <rect
         style="display:inline;opacity:1;vector-effect:none;fill:#ffffff;fill-opacity:1;stroke:none;stroke-width:0.26458332px;stroke-linecap:butt;stroke-linejoin:miter;stroke-miterlimit:4;stroke-dasharray:none;stroke-dashoffset:0;stroke-opacity:1"
         id="rect1186-8-4-5"
         width="1.8898809"
         height="1.8898809"
         x="209.9955"
         y="55.381664"
         transform="rotate(58.43166)"
         inkscape:export-xdpi="139.65666"
         inkscape:export-ydpi="139.65666" />
      <rect
         style="display:inline;opacity:1;vector-effect:none;fill:#ffffff;fill-opacity:1;stroke:none;stroke-width:0.26458332px;stroke-linecap:butt;stroke-linejoin:miter;stroke-miterlimit:4;stroke-dasharray:none;stroke-dashoffset:0;stroke-opacity:1"
         id="rect1186-8-6-5"
         width="1.8898809"
         height="1.8898809"
         x="120.26469"
         y="48.877998"
         transform="rotate(15.79101)"
         inkscape:export-xdpi="139.65666"
         inkscape:export-ydpi="139.65666" />
      <rect
         style="display:inline;opacity:1;vector-effect:none;fill:#ffffff;fill-opacity:1;stroke:none;stroke-width:0.26458332px;stroke-linecap:butt;stroke-linejoin:miter;stroke-miterlimit:4;stroke-dasharray:none;stroke-dashoffset:0;stroke-opacity:1"
         id="rect1186-8-6-0-5"
         width="1.8898809"
         height="1.8898809"
         x="152.77066"
         y="85.541679"
         transform="rotate(15.79101)"
         inkscape:export-xdpi="139.65666"
         inkscape:export-ydpi="139.65666" />
      <rect
         style="display:inline;opacity:1;vector-effect:none;fill:#ffffff;fill-opacity:1;stroke:none;stroke-width:0.26458332px;stroke-linecap:butt;stroke-linejoin:miter;stroke-miterlimit:4;stroke-dasharray:none;stroke-dashoffset:0;stroke-opacity:1"
         id="rect1186-8-4-5-8"
         width="1.8898809"
         height="1.8898809"
         x="117.17707"
         y="-36.111046"
         transform="rotate(74.22267)"
         inkscape:export-xdpi="139.65666"
         inkscape:export-ydpi="139.65666" />
      <rect
         style="display:inline;opacity:1;vector-effect:none;fill:#ffffff;fill-opacity:1;stroke:none;stroke-width:0.26458332px;stroke-linecap:butt;stroke-linejoin:miter;stroke-miterlimit:4;stroke-dasharray:none;stroke-dashoffset:0;stroke-opacity:1"
         id="rect1186-8-6-0-9"
         width="1.8898809"
         height="1.8898809"
         x="-132.15324"
         y="110.76428"
         transform="rotate(-71.119042)"
         inkscape:export-xdpi="139.65666"
         inkscape:export-ydpi="139.65666" />
      <rect
         style="display:inline;opacity:1;vector-effect:none;fill:#ffffff;fill-opacity:1;stroke:none;stroke-width:0.26458332px;stroke-linecap:butt;stroke-linejoin:miter;stroke-miterlimit:4;stroke-dasharray:none;stroke-dashoffset:0;stroke-opacity:1"
         id="rect1186-8-4-6"
         width="1.8898809"
         height="1.8898809"
         x="-104.92715"
         y="-140.02196"
         transform="rotate(-155.27691)"
         inkscape:export-xdpi="139.65666"
         inkscape:export-ydpi="139.65666" />
      <rect
         style="display:inline;opacity:1;vector-effect:none;fill:#ffffff;fill-opacity:1;stroke:none;stroke-width:0.26458332px;stroke-linecap:butt;stroke-linejoin:miter;stroke-miterlimit:4;stroke-dasharray:none;stroke-dashoffset:0;stroke-opacity:1"
         id="rect1186-8-6-0-5-5"
         width="1.8898809"
         height="1.8898809"
         x="203.1869"
         y="91.675842"
         transform="rotate(15.791011)"
         inkscape:export-xdpi="139.65666"
         inkscape:export-ydpi="139.65666" />
      <rect
         style="display:inline;opacity:1;vector-effect:none;fill:#ffffff;fill-opacity:1;stroke:none;stroke-width:0.26458332px;stroke-linecap:butt;stroke-linejoin:miter;stroke-miterlimit:4;stroke-dasharray:none;stroke-dashoffset:0;stroke-opacity:1"
         id="rect1186-8-4-50"
         width="1.8898809"
         height="1.8898809"
         x="-186.62506"
         y="173.83298"
         transform="rotate(-84.157871)"
         inkscape:export-xdpi="139.65666"
         inkscape:export-ydpi="139.65666" />
      <rect
         style="display:inline;opacity:1;vector-effect:none;fill:#ffffff;fill-opacity:1;stroke:none;stroke-width:0.26458332px;stroke-linecap:butt;stroke-linejoin:miter;stroke-miterlimit:4;stroke-dasharray:none;stroke-dashoffset:0;stroke-opacity:1"
         id="rect1186-8-6-4-1"
         width="1.8898809"
         height="1.8898809"
         x="62.604507"
         y="-243.92821"
         transform="rotate(142.58953)"
         inkscape:export-xdpi="139.65666"
         inkscape:export-ydpi="139.65666" />
    </g>
    <g
       inkscape:groupmode="layer"
       id="layer8"
       inkscape:label="planets"
       style="display:inline">
      <g
         style="display:inline"
         id="g956"
         transform="rotate(-20.361534,126.84456,203.77321)"
         inkscape:export-xdpi="139.65666"
         inkscape:export-ydpi="139.65666">
        <circle
           r="19.276785"
           cy="202.88393"
           cx="140.04018"
           id="path872-6"
           style="display:inline;opacity:1;vector-effect:none;fill:#0000ff;fill-opacity:1;stroke:none;stroke-width:0.26458332px;stroke-linecap:butt;stroke-linejoin:miter;stroke-miterlimit:4;stroke-dasharray:none;stroke-dashoffset:0;stroke-opacity:1" />
        <path
           id="path872-64"
           transform="scale(0.26458333)"
           d="m 496.01562,818.22266 c -4.77503,0.0575 -10.49437,1.92446 -14.51953,3.51172 a 72.85714,72.85714 0 0 0 47.78907,17.92773 72.85714,72.85714 0 0 0 48.3125,-18.44141 l -46.88282,4.8711 c 0,0 -21.42886,0.71375 -27.85742,-5.71485 -1.60715,-1.60714 -4.06278,-2.18778 -6.8418,-2.15429 z"
           style="display:inline;opacity:1;vector-effect:none;fill:#ffffff;fill-opacity:1;stroke:none;stroke-width:0.99999994px;stroke-linecap:butt;stroke-linejoin:miter;stroke-miterlimit:4;stroke-dasharray:none;stroke-dashoffset:0;stroke-opacity:1"
           inkscape:connector-curvature="0" />
        <path
           id="path872-61"
           transform="scale(0.26458333)"
           d="m 489.25977,705.96875 a 72.85714,72.85714 0 0 0 -32.83204,60.83594 72.85714,72.85714 0 0 0 9.35157,35.5332 l 9.93554,5.18164 v -10 c 0,0 3.57116,-11.42886 7.14258,-17.85742 3.57143,-6.42856 15,-2.85742 15,-2.85742 0,0 7.85658,-19.99916 19.28516,-16.42774 11.42857,3.57143 19.28515,-11.42968 19.28515,-11.42968 l -29.28515,-12.85547 16.42969,-14.28711 z"
           style="display:inline;opacity:1;vector-effect:none;fill:#00ff00;fill-opacity:1;stroke:none;stroke-width:0.99999994px;stroke-linecap:butt;stroke-linejoin:miter;stroke-miterlimit:4;stroke-dasharray:none;stroke-dashoffset:0;stroke-opacity:1"
           inkscape:connector-curvature="0" />
        <path
           id="path872"
           transform="scale(0.26458333)"
           d="m 529.28516,693.94922 a 72.85714,72.85714 0 0 0 -21.72852,3.39844 l 26.01563,13.74414 18.57031,2.85742 14.89453,-9.35156 a 72.85714,72.85714 0 0 0 -37.75195,-10.64844 z"
           style="opacity:1;vector-effect:none;fill:#ffffff;fill-opacity:1;stroke:none;stroke-width:0.99999994px;stroke-linecap:butt;stroke-linejoin:miter;stroke-miterlimit:4;stroke-dasharray:none;stroke-dashoffset:0;stroke-opacity:1"
           inkscape:connector-curvature="0" />
        <path
           inkscape:connector-curvature="0"
           id="path878"
           d="m 136.26042,211.76637 c 0,-2.45685 2.83482,-6.04762 2.83482,-6.04762 0,0 6.04762,2.83482 8.31547,-1.7009 4.34673,3.2128 1.13393,11.71727 1.13393,11.71727 -5.10268,-3.2128 -12.28422,-3.96875 -12.28422,-3.96875 z"
           style="fill:#00ff00;fill-opacity:1;stroke:none;stroke-width:0.26458332px;stroke-linecap:butt;stroke-linejoin:miter;stroke-opacity:1" />
        <path
           id="path880"
           transform="scale(0.26458333)"
           d="m 577.74414,712.5 c -6.78385,1.38879 -17.19867,5.43932 -26.31641,17.16211 22.14286,8.57144 35.71485,31.42969 35.71485,31.42969 0,0 2.14285,21.42714 -5,35.71289 3.42293,2.95617 6.62594,5.37778 9.56836,7.39843 A 72.85714,72.85714 0 0 0 602.14258,766.80469 72.85714,72.85714 0 0 0 577.74414,712.5 Z"
           style="fill:#00ff00;fill-opacity:1;stroke:none;stroke-width:0.99999994px;stroke-linecap:butt;stroke-linejoin:miter;stroke-opacity:1"
           inkscape:connector-curvature="0" />
      </g>
      <circle
         style="display:inline;opacity:1;vector-effect:none;fill:#ffff00;fill-opacity:1;stroke:none;stroke-width:0.18934636px;stroke-linecap:butt;stroke-linejoin:miter;stroke-miterlimit:4;stroke-dasharray:none;stroke-dashoffset:0;stroke-opacity:1"
         id="path933"
         cx="42.616814"
         cy="137.96652"
         r="14.268601"
         inkscape:export-xdpi="139.65666"
         inkscape:export-ydpi="139.65666" />
      <path
         style="display:inline;opacity:1;vector-effect:none;fill:#ffffff;fill-opacity:1;stroke:none;stroke-width:0.41414443px;stroke-linecap:butt;stroke-linejoin:miter;stroke-miterlimit:4;stroke-dasharray:none;stroke-dashoffset:0;stroke-opacity:1"
         d="m 178.76561,183.04979 a 10.649429,10.649429 0 0 0 -5.52507,-14.01086 10.649429,10.649429 0 0 0 -13.92065,5.34378 10.649429,10.649429 0 0 1 7.21128,0.45053 10.649429,10.649429 0 0 1 5.52466,14.0098 10.649429,10.649429 0 0 1 -0.0901,0.18223 10.649429,10.649429 0 0 0 6.79957,-5.9756 z"
         id="path994"
         inkscape:connector-curvature="0"
         inkscape:export-xdpi="139.65666"
         inkscape:export-ydpi="139.65666" />
      <g
         style="display:inline"
         id="g1123"
         transform="rotate(-11.965409,95.428886,134.36778)"
         inkscape:export-xdpi="139.65666"
         inkscape:export-ydpi="139.65666">
        <circle
           r="13.898015"
           cy="105.10047"
           cx="110.64958"
           id="path1088"
           style="opacity:1;vector-effect:none;fill:#bf00ba;fill-opacity:1;stroke:none;stroke-width:0.26458332px;stroke-linecap:butt;stroke-linejoin:miter;stroke-miterlimit:4;stroke-dasharray:none;stroke-dashoffset:0;stroke-opacity:1" />
        <path
           inkscape:connector-curvature="0"
           id="path1088-9"
           d="m 130.43503,102.01785 a 21.153776,4.6772165 0 0 1 1.11311,1.47898 21.153776,4.6772165 0 0 1 -21.15375,4.67724 21.153776,4.6772165 0 0 1 -21.153747,-4.67724 21.153776,4.6772165 0 0 1 0.310576,-0.76688 27.197711,6.013564 0 0 0 -5.361429,3.57343 27.197711,6.013564 0 0 0 27.19782,6.01358 27.197711,6.013564 0 0 0 27.19782,-6.01358 27.197711,6.013564 0 0 0 -8.1504,-4.28553 z"
           style="display:inline;opacity:1;vector-effect:none;fill:#53006d;fill-opacity:1;stroke:none;stroke-width:0.24346797px;stroke-linecap:butt;stroke-linejoin:miter;stroke-miterlimit:4;stroke-dasharray:none;stroke-dashoffset:0;stroke-opacity:1" />
      </g>
    </g>
    <g
       inkscape:groupmode="layer"
       id="layer9"
       inkscape:label="rocket"
       style="display:inline">
      <path
         style="display:inline;fill:#ffff00;fill-opacity:1;stroke:#000000;stroke-width:0.26458332px;stroke-linecap:butt;stroke-linejoin:miter;stroke-opacity:1"
         d="m 140.8746,122.70186 c 16.74147,-2.9727 26.37987,14.79218 41.49892,24.99754 -16.81995,-6.04761 -41.3884,-4.15773 -44.22322,-16.25297 -1.29377,-5.52007 2.7243,-8.74457 2.7243,-8.74457 z"
         id="path870"
         inkscape:connector-curvature="0"
         sodipodi:nodetypes="ccsc" />
      <path
         style="display:inline;fill:#ff0000;fill-opacity:1;stroke:none;stroke-width:0.20057558px;stroke-linecap:butt;stroke-linejoin:miter;stroke-opacity:1"
         d="m 48.614842,90.55284 c 19.23802,22.82184 40.33779,31.15677 63.506148,37.30874 -4.55093,10.51788 4.7578,17.2652 13.65279,19.24971 8.89501,1.98451 9.30873,-9.12873 3.93035,-11.51013 0.20686,-1.98451 1.44802,-3.57213 1.44802,-3.57213 l 2.06861,0.79381 c 5.79209,5.35817 22.54779,16.07451 22.54779,16.07451 -1.86174,5.15972 7.03325,10.12099 9.92931,10.71634 2.89604,0.59535 8.48127,2.57986 11.58418,-3.17522 3.1029,-5.75506 -4.13721,-9.32718 -5.7921,-9.92252 -5.37837,-1.98452 -9.51558,-1.98452 -10.75673,-0.99226 -5.37838,-4.16747 -18.41059,-14.4869 -18.41059,-14.4869 3.93035,-3.37367 0.20686,-7.34268 -1.44802,-8.33493 4.55093,-6.15197 12.20476,-10.71634 16.34197,-10.91479 5.58523,1.98451 9.72244,-0.39691 10.75675,-1.9845 1.0343,-1.58762 1.0343,-6.94578 -2.27546,-8.93028 -3.30978,-1.98452 -10.34303,-5.556627 -18.20372,-2.57987 -7.8607,2.97676 -15.92827,7.34268 -21.72036,14.68536 C 99.502502,93.331146 64.749952,85.393122 48.614842,90.55284 Z"
         id="path3751"
         inkscape:connector-curvature="0"
         inkscape:export-xdpi="139.65666"
         inkscape:export-ydpi="139.65666" />
      <path
         inkscape:connector-curvature="0"
         style="display:inline;opacity:1;vector-effect:none;fill:#ffffff;fill-opacity:1;stroke:none;stroke-width:0.20057558px;stroke-linecap:butt;stroke-linejoin:miter;stroke-miterlimit:4;stroke-dasharray:none;stroke-dashoffset:0;stroke-opacity:1"
         d="m 92.049512,95.161514 c 1.64241,1.547363 2.37193,4.045696 2.32018,6.807276 3.60196,1.37516 7.280538,2.89183 10.856208,4.44061 -0.14574,-2.8138 -1.38187,-5.53842 -4.07123,-7.65949 -3.039788,-1.33086 -6.085068,-2.526967 -9.105158,-3.588396 z M 105.2259,106.4094 c 0.20607,3.97845 -1.76961,8.13411 -4.90635,11.01612 3.50829,1.42111 6.98978,2.75306 10.26067,3.95253 2.70832,-2.8256 4.23345,-6.91608 4.12563,-10.69381 -2.97576,-1.39172 -6.17882,-2.84499 -9.47995,-4.27484 z m 9.47995,4.27484 c 3.10138,1.45047 5.94458,2.82946 8.36963,4.0404 -0.27586,-1.94113 -1.15709,-3.87167 -2.80613,-5.61321 -2.53565,-1.67504 -5.12826,-3.24804 -7.75651,-4.71839 1.43213,1.72421 2.12611,3.94739 2.19301,6.2912 z m 8.36963,4.0404 c 0.51021,3.59004 -1.05083,7.21571 -3.65686,9.74875 3.928,1.30245 6.95634,2.19359 8.42363,2.49523 2.58576,-2.97676 3.20659,-6.35038 2.99973,-8.13644 -1.03536,-0.64428 -3.86074,-2.15723 -7.7665,-4.10754 z m -3.65686,9.74875 c -2.60904,-0.86511 -5.61782,-1.91431 -8.8384,-3.09534 -2.20552,2.30103 -5.19414,3.7634 -8.72481,3.53085 3.37416,1.05939 6.793,2.03024 10.25908,2.95067 2.73828,-0.16618 5.32305,-1.46058 7.30413,-3.38618 z m -19.09907,-7.04787 c -3.456228,-1.40001 -6.927118,-2.88241 -10.231858,-4.39647 -2.13194,2.39749 -4.98531,3.99064 -8.39484,3.88461 3.12339,1.56759 6.28919,2.96772 9.49794,4.23955 3.43356,0.0385 6.64475,-1.4454 9.128758,-3.72769 z m -10.231858,-4.39647 c 2.67411,-3.0072 4.21116,-7.28002 4.282,-11.06026 -4.65681,-1.77787 -9.18236,-3.31813 -13.1744,-4.37076 0.20686,3.47289 -1.24118,6.94543 -3.62007,8.92994 3.46309,2.13576 7.81788,4.35028 12.51247,6.50108 z"
         id="path4560-5"
         inkscape:export-xdpi="139.65666"
         inkscape:export-ydpi="139.65666" />
    </g>
  </g>
  <g
     inkscape:groupmode="layer"
     id="layer7"
     inkscape:label="fist"
     style="display:none"
     sodipodi:insensitive="true">
    <rect
       style="display:inline;opacity:1;vector-effect:none;fill:#fb0000;fill-opacity:1;stroke:none;stroke-width:0.25127375px;stroke-linecap:butt;stroke-linejoin:miter;stroke-miterlimit:4;stroke-dasharray:none;stroke-dashoffset:0;stroke-opacity:1"
       id="rect4704-1"
       width="178.02679"
       height="178.78275"
       x="13.607144"
       y="67.190475"
       inkscape:export-xdpi="139.65666"
       inkscape:export-ydpi="139.65666" />
    <path
       inkscape:connector-curvature="0"
       id="path980"
       d="m 131.09408,232.49797 c -0.3475,-0.3475 -0.63145,-0.9483 -0.631,-1.33511 0.001,-0.97636 -1.24211,-13.75705 -2.92139,-30.03195 -0.21399,-2.07396 -0.5092,-5.23486 -0.65601,-7.02423 l -0.26693,-3.2534 17.42404,-17.24516 c 12.92531,-12.7926 17.42405,-17.4945 17.42405,-18.21089 0,-0.53115 -0.26699,-1.67657 -0.59332,-2.54538 -0.32632,-0.86882 -1.28262,-3.84216 -2.12511,-6.60743 -3.05685,-10.03349 -10.75648,-31.86172 -11.5084,-32.62602 -0.42394,-0.43092 -1.73538,-1.03369 -2.91433,-1.33951 -2.45191,-0.63601 -2.76282,-0.57171 -16.37731,3.3873 -4.26313,1.23969 -10.57927,3.02747 -14.03586,3.97284 -3.45659,0.94537 -7.55737,2.09429 -9.11283,2.55315 l -2.82812,0.83428 v 1.89171 c 0,2.43637 0.85132,7.77504 1.34048,8.40624 0.62887,0.81146 8.00625,3.87207 11.46655,4.75707 7.05903,1.8054 9.62913,1.17477 14.82769,-3.6383 1.86696,-1.72852 3.18984,-2.65155 3.58362,-2.50045 0.88443,0.33939 0.80515,0.76966 -0.84223,4.57112 -0.80654,1.86115 -1.46643,3.9249 -1.46643,4.58612 0,1.76444 1.58777,3.13504 4.03245,3.48093 3.98103,0.56326 4.97563,0.85766 4.97563,1.47278 0,0.40859 -0.69104,0.71795 -2.0949,0.93783 -8.5786,1.34363 -13.16022,2.47646 -16.34922,4.04243 -7.78574,3.82324 -19.17925,13.1272 -24.065711,19.65211 -3.828333,5.11199 -7.139396,12.50027 -7.139396,15.93077 0,1.44773 -0.31954,1.34671 6.874915,2.17341 5.032122,0.57823 5.275532,0.66313 5.275532,1.84021 0,0.51251 -2.451141,7.32697 -5.446979,15.14322 -2.995839,7.81626 -5.934462,15.48295 -6.530274,17.03707 -1.135161,2.96098 -1.652695,3.61355 -2.329232,2.93702 -0.263476,-0.26348 0.05272,-2.4604 0.896259,-6.22726 1.727232,-7.71297 5.030607,-23.65613 5.030607,-24.27932 0,-0.33813 -1.024048,-0.48865 -3.247102,-0.4773 -3.492004,0.0178 -6.28113,-0.65567 -7.122674,-1.71991 -1.175606,-1.4867 -0.212679,-8.58221 1.904699,-14.03513 0.679483,-1.74988 2.339652,-4.84139 3.689269,-6.87002 2.997159,-4.50506 10.708334,-12.53738 15.247427,-15.88242 3.11436,-2.2951 3.27049,-2.48057 2.20124,-2.61487 -2.29638,-0.28844 -18.242564,2.06462 -20.391442,3.00902 -1.13429,0.4985 -4.89419,2.83891 -8.355333,5.20091 -3.461142,2.36201 -6.586726,4.2892 -6.945743,4.28265 -0.359016,-0.007 -4.80067,-3.28494 -9.870338,-7.28532 -5.069668,-4.00037 -9.384107,-7.17356 -9.587639,-7.05153 -0.203537,0.12203 -0.267385,2.31631 -0.141888,4.87617 0.251795,5.13618 1.172752,9.17614 4.318817,18.94541 2.523446,7.8359 2.637136,7.98144 14.584229,18.66975 l 1.631863,1.45992 -0.07706,3.05346 c -0.04238,1.6794 -0.263735,4.49304 -0.4919,6.25254 -0.22816,1.75949 -0.694955,7.91262 -1.037321,13.6736 -0.342366,5.76099 -0.726651,10.80447 -0.853967,11.20774 -0.395572,1.25298 -1.892985,0.82437 -6.747242,-1.93126 -6.727195,-3.81885 -10.9052,-6.94209 -16.56838,-12.3856 -7.91069,-7.60383 -12.502686,-13.78217 -17.144524,-23.06724 -13.517971,-27.04001 -10.783365,-59.80702 7.074214,-84.76571 2.964181,-4.1429 10.876496,-12.437793 15.16151,-15.894611 33.051488,-26.663373 81.267294,-23.558042 110.847384,7.139106 18.67616,19.381445 26.65458,46.394805 21.53639,72.917935 -4.759,24.66178 -21.12345,46.20613 -43.81555,57.68466 -6.17372,3.1229 -7.89271,3.68793 -8.71579,2.86485 z M 74.081795,159.87173 c 2.527502,-1.22784 6.173373,-4.56304 6.020336,-5.50733 -0.196678,-1.2136 -19.946564,-27.48339 -20.837426,-27.71636 -1.965846,-0.51407 -6.85534,3.01847 -10.489521,7.57843 -1.67193,2.09784 -2.10915,2.9663 -2.109338,4.18981 -2.14e-4,1.39018 0.364161,1.89703 3.669748,5.10476 3.970142,3.85261 10.283374,9.39039 16.15519,14.17085 4.064328,3.30892 4.820073,3.52594 7.591011,2.17984 z m 18.708723,-9.44314 c 6.396559,-0.98641 10.019002,-1.72806 10.019002,-2.05126 0,-0.66541 -13.061365,-22.52447 -18.499719,-30.96051 -4.324553,-6.7083 -4.972436,-7.43628 -6.323368,-7.10515 -5.752783,1.41011 -14.980095,8.40142 -14.980095,11.35005 0,1.14183 3.308382,7.13905 5.818182,10.54684 4.127778,5.60465 14.07771,18.1114 14.825478,18.63516 1.172178,0.82102 1.104513,0.8241 9.14052,-0.41513 z m 22.472952,-3.62611 c 2.71356,-0.73004 5.06731,-1.43864 5.23054,-1.57468 0.86761,-0.72303 -1.16713,-1.60324 -8.31445,-3.59678 -4.34698,-1.21246 -7.96435,-2.04369 -8.0386,-1.84717 -0.17469,0.4624 5.31507,8.34598 5.81175,8.34598 0.20735,0 2.59719,-0.59731 5.31076,-1.32735 z M 97.16004,121.43189 c 0.282397,-1.23601 0.943427,-1.54806 7.89171,-3.72542 3.26034,-1.02169 6.15656,-1.9389 6.43605,-2.03825 0.34161,-0.12144 -0.22847,-1.73175 -1.73937,-4.9133 -1.23614,-2.60297 -3.02015,-6.40822 -3.96446,-8.45613 l -1.71693,-3.723471 -2.61892,0.224423 c -3.366507,0.288485 -9.602061,2.807308 -13.605804,5.495998 -3.943737,2.64839 -4.168776,2.93298 -3.571137,4.5163 0.260782,0.6909 3.171668,5.33058 6.468637,10.31039 l 5.99448,9.05422 0.10656,-2.90707 c 0.05861,-1.59889 0.202242,-3.32585 0.319184,-3.83769 z m 30.81993,-10.16829 c 9.22393,-2.44634 10.17999,-2.78145 9.88954,-3.4665 -0.7517,-1.77292 -5.84817,-12.741949 -7.05402,-15.182231 -1.14429,-2.315691 -1.62049,-2.902574 -2.26294,-2.788917 -1.72469,0.305118 -13.52646,3.840001 -16.31596,4.886976 -1.61308,0.605431 -3.18452,1.346458 -3.49209,1.646724 -0.46443,0.4534 -0.0438,1.531635 2.48154,6.361218 1.67241,3.1984 3.59605,6.94652 4.27475,8.32916 0.6787,1.38263 1.42553,2.63488 1.65964,2.78278 0.2341,0.14789 1.01315,0.0947 1.73122,-0.1181 0.71807,-0.21285 4.80781,-1.31585 9.08832,-2.45111 z"
       style="display:inline;opacity:1;fill:#000000;fill-opacity:1;stroke-width:0.41898084"
       inkscape:export-xdpi="139.65666"
       inkscape:export-ydpi="139.65666" />
  </g>
  <g
     inkscape:groupmode="layer"
     id="layer4"
     inkscape:label="guide"
     style="display:none"
     sodipodi:insensitive="true">
    <ellipse
       style="opacity:0.97000002;vector-effect:none;fill:#000000;fill-opacity:1;stroke:#ffffff;stroke-width:0.26458332px;stroke-linecap:butt;stroke-linejoin:miter;stroke-miterlimit:4;stroke-dasharray:none;stroke-dashoffset:0;stroke-opacity:1"
       id="path4731"
       cx="102.62054"
       cy="156.58185"
       rx="15.447277"
       ry="14.980235"
       inkscape:export-xdpi="139.65666"
       inkscape:export-ydpi="139.65666" />
    <ellipse
       style="opacity:1;vector-effect:none;fill:none;fill-opacity:1;stroke:#ffffff;stroke-width:0.26458332px;stroke-linecap:butt;stroke-linejoin:miter;stroke-miterlimit:4;stroke-dasharray:none;stroke-dashoffset:0;stroke-opacity:1"
       id="path863"
       cx="102.62054"
       cy="156.58185"
       rx="89.013397"
       ry="89.391373" />
  </g>
</svg>
